# xmcd CD database file
#
# Track frame offsets:
#	150
#	12725
#	25600
#	38435
#	51845
#	64770
#	82320
#	96287
#	110207
#	123475
#	135950
#	155742
#	175065
#	192187
#	208410
#	226580
#	245515
#
# Disc length: 3537 seconds
#
# Revision: 0
# Processed by: cddbd v1.5.2PL0 Copyright (c) Steve Scherf et al.
# Submitted via: CDex 1.51
#
DISCID=ea0dcf11
DTITLE=Elmo Hope Trio and Quintet - Elmo Hope Trio and Quintet
DYEAR=1954
DGENRE=Jazz
TTITLE0=It's a Lovely Day Today
TTITLE1=MO is On (alternate take)
TTITLE2=MO is On
TTITLE3=Sweet and Lovely
TTITLE4=Happy Hour
TTITLE5=Hot Sauce
TTITLE6=Stars Over Marakesh
TTITLE7=Friffie
TTITLE8=Carvin' the Rock
TTITLE9=I Remember You
TTITLE10=Crazy (alternate take)
TTITLE11=Crazy
TTITLE12=Abdullah
TTITLE13=Chips
TTITLE14=Later for You
TTITLE15=Low Tide
TTITLE16=Maybe So
EXTD=YEAR: 1954
EXTT0=
EXTT1=
EXTT2=
EXTT3=
EXTT4=
EXTT5=
EXTT6=
EXTT7=
EXTT8=
EXTT9=
EXTT10=
EXTT11=
EXTT12=
EXTT13=
EXTT14=
EXTT15=
EXTT16=
PLAYORDER=
